<svg 
    xmlns="http://www.w3.org/2000/svg" 
    viewBox="0 0 500 500"
    width="60px" 
    height="60px"
>
    <defs>
        <linearGradient id="instagramGradient" x1="0%" y1="0%" x2="100%" y2="100%">
            <stop offset="0%" style="stop-color:#feda75; stop-opacity:1" />
            <stop offset="25%" style="stop-color:#fa7e1e; stop-opacity:1" />
            <stop offset="50%" style="stop-color:#d62976; stop-opacity:1" />
            <stop offset="75%" style="stop-color:#962fbf; stop-opacity:1" />
            <stop offset="100%" style="stop-color:#4f5bd5; stop-opacity:1" />
        </linearGradient>
    </defs>
    <path 
        fill="url(#instagramGradient)" 
        d="M 290.35 161.598 L 290.516 104.79 L 208.425 172.047 L 192.08 171.794 
        L 265.394 228.376 L 260.351 228.229 L 199.799 276.494 L 199.458 195.184 
        L 190.482 203.149 L 190.095 286.087 L 202.568 286.039 L 265.481 236.438 
        C 265.481 236.438 321.697 237.179 322.678 237.108 C 323.659 237.037 
        276.29 275.341 276.29 275.341 L 318.843 309.463 L 289.529 332.795 
        C 289.529 332.795 175.993 333.117 176.045 333.117 C 176.097 333.117 
        292.916 239.125 292.916 239.125 L 278.983 239.104 C 278.983 239.104 
        151.267 341.162 151.267 341.112 C 151.267 341.062 279.269 340.925 
        279.269 340.925 L 254.86 360.871 L 269.116 360.89 L 333.191 309.234 
        L 290.76 275.162 L 337.511 237.119 L 350.718 237.032 L 340.55 228.897 
        L 277.612 228.193 L 215.291 179.698 C 215.291 179.698 279.341 126.75 
        279.341 126.803 C 279.341 126.856 279.232 161.938 279.181 161.938 
        C 279.13 161.938 290.232 161.943 290.35 161.598 Z"/>
</svg>
